<?xml version="1.0" encoding="utf-8" ?>
<svg baseProfile="full" height="300mm" version="1.1" viewBox="0,0,200,300" width="200mm" xmlns="http://www.w3.org/2000/svg" xmlns:ev="http://www.w3.org/2001/xml-events" xmlns:xlink="http://www.w3.org/1999/xlink"><defs /><rect fill="#222222" height="300" width="200" x="0" y="0" /><text fill="#FFFFFF" style="font-size:12px; font-family:Arial; font-weight:bold;" x="10" y="20">Over 10km Runs</text><text fill="#FFFFFF" style="font-size:4px; font-family:Arial" x="10" y="280">Runner</text><text fill="#FFFFFF" style="font-size:9px; font-family:Arial" x="10" y="290">looechao</text><text fill="#FFFFFF" style="font-size:4px; font-family:Arial" x="65" y="280">SPECIAL TRACKS</text><rect fill="yellow" height="2.6" width="2.6" x="65" y="283" /><text fill="#FFFFFF" style="font-size:3px; font-family:Arial" x="70" y="285.5">Over 20.0 km</text><rect fill="red" height="2.6" width="2.6" x="65" y="287" /><text fill="#FFFFFF" style="font-size:3px; font-family:Arial" x="70" y="289.5">Over 40.0 km</text><text fill="#FFFFFF" style="font-size:4px; font-family:Arial" x="120" y="280">STATISTICS</text><text fill="#FFFFFF" style="font-size:3px; font-family:Arial" x="120" y="285">Number: 1</text><text fill="#FFFFFF" style="font-size:3px; font-family:Arial" x="120" y="290">Weekly: 1.0</text><text fill="#FFFFFF" style="font-size:3px; font-family:Arial" x="141" y="285">Total: 10.7 km</text><text fill="#FFFFFF" style="font-size:3px; font-family:Arial" x="141" y="290">Avg: 10.7 km</text><text fill="#FFFFFF" style="font-size:3px; font-family:Arial" x="167" y="285">Min: 10.7 km</text><text fill="#FFFFFF" style="font-size:3px; font-family:Arial" x="167" y="290">Max: 10.7 km</text><polyline fill="none" points="147.32076100632548,178.35026536602527 132.14240370318294,134.81279178429395 125.89249187335372,103.42520242836326 114.28551275655627,83.17509658355266 104.46422273665667,72.03752225451171 68.75044084712863,74.0625366223976 62.50052901357412,84.18760277330875 48.21501625701785,102.41269803605974 54.46492809057236,120.63776267599314 58.03630627691746,142.91280009876937 70.53612994030118,191.51272298116237 77.67888631671667,203.66266967914999 85.71448724344373,218.85008391924202 117.85689094662666,222.90005745831877 134.82093734666705,214.80010886956006 141.96369372308254,196.5752024287358 138.39231553301215,155.0628012334928 124.99964732676744,100.38768896181136 113.39266820624471,83.17509658355266 85.71448724344373,71.02501493226737 58.03630627691746,83.17509658355266 46.4293271638453,107.47521906439215 58.92915082722902,146.96280198916793 72.32181903347373,197.58769803028554 86.60733179375529,218.85008391924202 115.17835730686784,224.92504366114736 141.07084917649627,210.75013230368495 150.89213920012116,197.58769803028554 143.7493828162551,168.22528710216284 131.24955915287137,120.63776267599314 112.49982365965843,82.16259029973298 92.85724361985922,71.02501493226737 65.17906265333295,77.10005745943636 48.21501625701785,107.47521906439215 62.50052901357412,165.18779178149998 66.96475175023079,188.47523418068886 73.21466358006,209.73763793054968 100.0,227.9625222561881 125.89249187335372,226.9500294867903 134.82093734666705,211.76262658741325 146.4279164597392,196.5752024287358 139.28516007959843,161.13779669534415 121.42826913297176,100.38768896181136 113.39266820624471,84.18760277330875 84.82164269685745,72.03752225451171 63.3933735601604,79.12507087923586 50.89354990050197,96.33766968268901 54.46492809057236,134.81279178429395 69.6432853937149,193.53771504294127 83.0359536036849,219.8625774467364 110.71413457021117,227.9625222561881 133.0352482497692,219.8625774467364 148.21360555291176,199.6126889605075 140.17800462991,157.08780009765178 120.53542458638549,98.36267951130867 110.71413457021117,79.12507087923586 92.85724361985922,70.0125075140968 69.6432853937149,74.0625366223976 52.67923899367452,95.32516462821513 55.35777263343334,135.82529315259308 69.6432853937149,188.47523418068886 85.71448724344373,222.90005745831877 110.71413457021117,231.0 137.49947098642588,217.83759029582143 149.10645009949803,192.52521905954927 133.0352482497692,137.85029561072588 121.42826913297176,91.27514345850796 99.10715545341372,71.02501493226737 73.21466358006,73.05002948548645 54.46492809057236,89.25013230741024 49.107860803604126,115.57524779159576 62.50052901357412,164.1752931503579 74.10750813037157,205.6876594759524 96.42862180992961,226.9500294867903 128.57102551311255,225.93753661960363 145.53507191315293,204.67516462504864 138.39231553301215,155.0628012334928 116.96404640004039,88.23762658983469 92.85724361985922,70.0125075140968 64.28621810674667,78.11256421543658 50.0007053501904,103.42520242836326 57.14346173033118,144.9378012334928 74.10750813037157,199.6126889605075 91.96439907699823,224.92504366114736 124.99964732676744,226.9500294867903 144.64222736656666,207.7126488899812 141.07084917649627,159.11279858555645 124.10680277645588,101.40019354689866 93.75008817017078,70.0125075140968 74.10750813037157,73.05002948548645 55.35777263343334,91.27514345850796 47.322171706706285,123.67527047079057 66.07190720364451,178.35026536602527 86.60733179375529,220.87507087737322 105.35706728324294,228.97501493338495 133.9280927963555,218.85008391924202 148.21360555291176,199.6126889605075 139.28516007959843,157.08780009765178 122.32111368328333,94.31265947874635 112.49982365965843,79.12507087923586 86.60733179375529,71.02501493226737 63.3933735601604,80.13757744897157 55.35777263343334,92.28764889203012 58.03630627691746,141.90029939170927 74.10750813037157,207.7126488899812 100.0,226.9500294867903 131.24955915287137,221.88756421767175 147.32076100632548,200.62518428079784 141.07084917649627,162.15029561053962 124.99964732676744,110.51273054257035 111.60697911679745,80.13757744897157 93.75008817017078,71.02501493226737 66.96475175023079,78.11256421543658 52.67923899367452,96.33766968268901 57.14346173033118,143.92530071176589 72.32181903347373,203.66266967914999 108.03560092300177,228.97501493338495 129.46387005969882,223.91255060583353 143.7493828162551,170.25028351135552 133.0352482497692,121.65026537049562 116.96404640004039,82.16259029973298 94.64293272048235,70.0125075140968 68.75044084712863,76.08755060657859 50.89354990050197,96.33766968268901 48.21501625701785,122.66276796814054 62.50052901357412,162.15029561053962 69.6432853937149,199.6126889605075 93.75008817017078,223.91255060583353 123.21395822614431,224.92504366114736 138.39231553301215,214.80010886956006 149.10645009949803,193.53771504294127 138.39231553301215,147.97530222591013 124.10680277645588,98.36267951130867 110.71413457021117,78.11256421543658 78.57173086702824,72.03752225451171 55.35777263343334,91.27514345850796 50.89354990050197,108.48772298451513 55.35777263343334,132.78778875712305 68.75044084712863,186.45024117268622 82.14310905337334,216.82509658299387 111.60697911679745,227.9625222561881 131.24955915287137,221.88756421767175 146.4279164597392,199.6126889605075 148.21360555291176,175.31277288217098 127.67818096652627,110.51273054257035 107.14275638014078,77.10005745943636 82.14310905337334,73.05002948548645 58.92915082722902,85.20010886900127 56.25061718374491,141.90029939170927 64.28621810674667,159.11279858555645 74.10750813037157,207.7126488899812 95.53577726334333,224.92504366114736 123.21395822614431,224.92504366114736 140.17800462991,213.78761486895382 146.4279164597392,171.2627815734595 131.24955915287137,108.48772298451513 101.78568909689784,74.0625366223976 68.75044084712863,77.10005745943636 48.21501625701785,111.52523418236524 63.3933735601604,168.22528710216284 73.21466358006,207.7126488899812 102.67853364348412,225.93753661960363 128.57102551311255,222.90005745831877 142.8565382733941,206.70015422906727 143.7493828162551,167.2127887578681 125.89249187335372,108.48772298451513 113.39266820624471,83.17509658355266 90.1787099801004,74.0625366223976 68.75044084712863,77.10005745943636 52.67923899367452,97.35017464589328 50.89354990050197,124.68777288123965 66.07190720364451,183.41275095567107 85.71448724344373,222.90005745831877 129.46387005969882,220.87507087737322 144.64222736656666,203.66266967914999 141.07084917649627,154.0503016570583 125.89249187335372,96.33766968268901 100.89284454658628,76.08755060657859 83.0359536036849,73.05002948548645 58.03630627691746,88.23762658983469 51.78639444708824,103.42520242836326 58.92915082722902,158.10029938723892 70.53612994030118,201.63767950981855 85.71448724344373,222.90005745831877 108.92844547331333,228.97501493338495 137.49947098642588,213.78761486895382 147.32076100632548,183.41275095567107 136.6066264398396,141.90029939170927 127.67818096652627,106.46271504554898 116.07120184972882,82.16259029973298 92.85724361985922,73.05002948548645 71.42897448688745,77.10005745943636 58.92915082722902,92.28764889203012 55.35777263343334,110.51273054257035 53.57208354398608,142.91280009876937 57.14346173033118,161.13779669534415 70.53612994030118,203.66266967914999 90.1787099801004,223.91255060583353 109.8212900236249,226.9500294867903 130.35671461001039,218.85008391924202 145.53507191315293,201.63767950981855 137.49947098642588,153.03780198656023 121.42826913297176,90.26263792905957 106.24991182982922,76.08755060657859 74.10750813037157,77.10005745943636 60.71483992040157,87.22512077912688 51.78639444708824,120.63776267599314 66.07190720364451,180.37525988463312 81.25026450678706,218.85008391924202 115.17835730686784,224.92504366114736 130.35671461001039,218.85008391924202 144.64222736656666,170.25028351135552 133.0352482497692,126.71277741808444 117.85689094662666,82.16259029973298 86.60733179375529,74.0625366223976 62.50052901357412,85.20010886900127 49.107860803604126,115.57524779159576 63.3933735601604,174.30027519725263 69.6432853937149,203.66266967914999 93.75008817017078,226.9500294867903 125.89249187335372,222.90005745831877 145.53507191315293,198.60019354242831 137.49947098642588,144.9378012334928 122.32111368328333,93.30015423242003 100.89284454658628,75.07504366151989 83.0359536036849,74.0625366223976 59.82199537009001,89.25013230741024 50.0007053501904,110.51273054257035 63.3933735601604,169.23778535518795 71.42897448688745,209.73763793054968 97.32146635651588,226.9500294867903 116.96404640004039,224.92504366114736 137.49947098642588,210.75013230368495 145.53507191315293,183.41275095567107 132.14240370318294,126.71277741808444 120.53542458638549,89.25013230741024 91.07155452668667,73.05002948548645 66.96475175023079,79.12507087923586 52.67923899367452,117.60025402996689 67.85759629681706,182.4002540288493 77.67888631671667,213.78761486895382 114.28551275655627,225.93753661960363 133.0352482497692,217.83759029582143 145.53507191315293,191.51272298116237 133.0352482497692,136.83779442775995 121.42826913297176,92.28764889203012 95.53577726334333,74.0625366223976 75.89319722354412,77.10005745943636 54.46492809057236,100.38768896181136 58.92915082722902,145.9503016564995 69.6432853937149,199.6126889605075 86.60733179375529,221.88756421767175 117.85689094662666,225.93753661960363 140.17800462991,207.7126488899812 145.53507191315293,179.36276267375797 129.46387005969882,118.61275700572878 116.07120184972882,86.2126148706302 87.50017633661628,76.08755060657859 59.82199537009001,89.25013230741024 52.67923899367452,111.52523418236524 56.25061718374491,132.78778875712305 69.6432853937149,197.58769803028554 85.71448724344373,221.88756421767175 127.67818096652627,222.90005745831877 141.96369372308254,203.66266967914999 146.4279164597392,179.36276267375797 129.46387005969882,115.57524779159576 123.21395822614431,92.28764889203012 100.89284454658628,77.10005745943636 91.07155452668667,73.05002948548645 65.17906265333295,83.17509658355266 50.89354990050197,116.58775095641613 64.28621810674667,175.31277288217098 71.42897448688745,207.7126488899812 98.21431090310216,229.98750751372427 134.82093734666705,218.85008391924202 153.5706728361547,194.55021093320101" stroke="#4DD2FF" stroke-linecap="round" stroke-linejoin="round" stroke-width="0.5"><title>2022-03-27 10.7km</title><desc>9223370388469348161</desc></polyline></svg>