<?xml version="1.0" encoding="utf-8" ?>
<svg baseProfile="full" height="200mm" version="1.1" viewBox="0,0,200,200" width="200mm" xmlns="http://www.w3.org/2000/svg" xmlns:ev="http://www.w3.org/2001/xml-events" xmlns:xlink="http://www.w3.org/1999/xlink"><defs /><rect fill="#1a1a1a" height="200" width="200" x="0" y="0" /><rect fill="#1a1a1a" height="200" width="180" x="10" y="0" /><text alignment-baseline="middle" fill="#e1ed5e" style="dominant-baseline: central; font-size:9.0px; font-family:Arial;" text-anchor="middle" x="100.0" y="100.0">2024</text><line stroke="#e1ed5e" stroke-width="0.3" x1="100.0" x2="100.0" y1="15.0" y2="10.0" /><path d="M 100.0 14.0 a86.0,86.0 0 0,1 42.35913384403234,11.155469271406648" fill="none" id="id37" stroke="none" /><text fill="#e1ed5e" style="font-size:6.75px; font-family:Arial;" text-anchor="middle"><textPath startOffset="22.145653131862478" xlink:href="#id37">January</textPath></text><line stroke="#e1ed5e" stroke-width="0.3" x1="143.13028292997686" x2="145.6673583964461" y1="26.7553504044142" y2="22.446841604673864" /><path d="M 143.63769802327073 25.89364864446614 a86.0,86.0 0 0,1 29.32050498858742,28.57503671076993" fill="none" id="id38" stroke="none" /><text fill="#e1ed5e" style="font-size:6.75px; font-family:Arial;" text-anchor="middle"><textPath startOffset="20.669276256404974" xlink:href="#id38">February</textPath></text><line stroke="#e1ed5e" stroke-width="0.3" x1="172.87174338648825" x2="177.1583165268699" y1="56.24261187166439" y2="53.66864786411523" /><path d="M 173.72905801456457 55.72781907015455 a86.0,86.0 0 0,1 12.242430191666344,42.057860355516425" fill="none" id="id39" stroke="none" /><text fill="#e1ed5e" style="font-size:6.75px; font-family:Arial;" text-anchor="middle"><textPath startOffset="22.145653131862474" xlink:href="#id39">March</textPath></text><path d="M 120.592083275326 95.88100663000786 l 61.776249825978 -12.35698010997641 a84.0,84.0 0 0,0 0.27069483087137236,1.4163897398667418 l -61.97927094913153 11.294687805076354" fill="red" stroke="none" /><path d="M 120.77682067341334 96.94652285012252 l 49.84219458546063 -7.325086193827571 a71.37758677072497,71.37758677072497 0 0,0 0.16775596677101892,1.2137986080137515 l -49.96059506878686 6.468399277613734" fill="red" stroke="none" /><path d="M 120.86939407059847 97.66154086499901 l 52.48767380793309 -5.881353328989738 a73.81615490310142,73.81615490310142 0 0,0 0.13029467897431926,1.2604828252721327 l -52.58090087938908 4.979465981434674" fill="red" stroke="none" /><path d="M 120.98066250479742 99.09900007780936 l 48.64535961805504 -2.0890410500994125 a69.69019516164317,69.69019516164317 0 0,0 0.04106847516076543,1.1956638446687577 l -48.674052780212655 1.253670940866535" fill="red" stroke="none" /><path d="M 120.99303781780057 99.45929381324524 l 49.331620860442115 -1.270607562058683 a70.34798131935256,70.34798131935256 0 0,0 0.020731109251932275,1.2074831819957683 l -49.34616340129271 0.42357746409384806" fill="red" stroke="none" /><line stroke="#e1ed5e" stroke-width="0.3" x1="184.99686870605535" x2="189.99668451229388" y1="99.2704041080226" y2="99.22748670261217" /><path d="M 185.99683186730306 99.26182062694052 a86.0,86.0 0 0,1 -10.086455211305974,41.156179273409016" fill="none" id="id40" stroke="none" /><text fill="#e1ed5e" style="font-size:6.75px; font-family:Arial;" text-anchor="middle"><textPath startOffset="21.40746469413373" xlink:href="#id40">April</textPath></text><path d="M 120.93736805541906 101.62068470465957 l 50.20754841285832 3.8863817818836974 a71.3577390376501,71.3577390376501 0 0,0 -0.10501948600636975,1.2204856175802064 l -50.13343530415421 -4.747688446839561" fill="red" stroke="none" /><path d="M 120.43855184770803 104.8234425847677 l 46.80551721771491 11.045974618564832 a69.09126737040505,69.09126737040505 0 0,0 -0.28232821662754265,1.1519954685805616 l -46.609001474571066 -11.847825911753493" fill="red" stroke="none" /><line stroke="#e1ed5e" stroke-width="0.3" x1="174.33088141563837" x2="178.70328620479359" y1="141.23008692659167" y2="143.65538615756765" /><path d="M 175.20536237346943 141.71514677278685 a86.0,86.0 0 0,1 -30.301960400862466,31.631185727798858" fill="none" id="id41" stroke="none" /><text fill="#e1ed5e" style="font-size:6.75px; font-family:Arial;" text-anchor="middle"><textPath startOffset="22.145653131862474" xlink:href="#id41">May</textPath></text><path d="M 117.62189284568427 111.42229804090321 l 40.584288276299134 26.306245335236706 a69.36427398949988,69.36427398949988 0 0,0 -0.6562374311295396,0.993627111449717 l -40.12672640624887 -26.999052325025485" fill="red" stroke="none" /><path d="M 114.39649973595853 115.28858382429668 l 33.26794886722471 35.32940883182787 a69.52755454624429,69.52755454624429 0 0,0 -0.8759486193466889,0.8107649649137247 l -32.656570476564056 -35.89529154287397" fill="red" stroke="none" /><line stroke="#e1ed5e" stroke-width="0.3" x1="143.1302829299769" x2="145.66735839644613" y1="173.24464959558577" y2="177.55315839532614" /><path d="M 143.63769802327073 174.10635135553383 a86.0,86.0 0 0,1 -40.68552437913181,11.842963189579606" fill="none" id="id42" stroke="none" /><text fill="#e1ed5e" style="font-size:6.75px; font-family:Arial;" text-anchor="middle"><textPath startOffset="21.407464694133747" xlink:href="#id42">June</textPath></text><path d="M 108.4095320186766 119.2426549942271 l 19.53211966384032 44.69331220364218 a69.77495109474543,69.77495109474543 0 0,0 -1.101663162605529,0.4702344951753241 l -18.762021426064358 -45.022021348476905" fill="red" stroke="none" /><path d="M 103.2317021107853 120.74984581791261 l 7.405468951002336 47.548422990415276 a69.1216531226818,69.1216531226818 0 0,0 -1.1739980156073682,0.17253727945228253 l -6.588145829787282 -47.66854134316644" fill="red" stroke="none" /><path d="M 100.72087961077811 120.9876233191556 l 1.6488894801621257 48.00561811868601 a69.033927670709,69.033927670709 0 0,0 -1.1847099242822283,0.030513925194098266 l -0.8245662418091537 -48.02684976123015" fill="red" stroke="none" /><line stroke="#e1ed5e" stroke-width="0.3" x1="101.45913802915013" x2="101.54496967792366" y1="184.9874750549273" y2="189.98673829345242" /><path d="M 101.47630435890484 185.9873277026323 a86.0,86.0 0 0,1 -42.54439059252881,-10.42667462771756" fill="none" id="id43" stroke="none" /><text fill="#e1ed5e" style="font-size:6.75px; font-family:Arial;" text-anchor="middle"><textPath startOffset="22.145653131862474" xlink:href="#id43">July</textPath></text><path d="M 98.19965949673042 120.92268563240118 l -4.130675111917966 48.00470614269231 a69.18209510519918,69.18209510519918 0 0,0 -1.1823563875807326,-0.11197037919519733 l 4.954131062883714 -47.92672400799193" fill="red" stroke="none" /><path d="M 95.70440661134978 120.55596938700252 l -9.882876110482671 47.293139830084336 a69.31472151635626,69.31472151635626 0 0,0 -1.162630952363756,-0.25339000479419144 l 10.693269479465563 -47.116518367156424" fill="red" stroke="none" /><path d="M 93.27111125876986 119.89276391827306 l -15.354455243587324 45.392718619766256 a68.91928838704307,68.91928838704307 0 0,0 -1.1174580900263202,-0.38870993061041537 l 16.131419105658665 -45.12245025658725" fill="red" stroke="none" /><path d="M 90.93487009805054 118.94263497670748 l -20.84103685060512 43.54975139542385 a69.2797023977106,69.2797023977106 0 0,0 -1.0683581693177433,-0.5225875167238996 l 21.585555269184933 -43.18557012860273" fill="red" stroke="none" /><line stroke="#e1ed5e" stroke-width="0.3" x1="58.13341422392154" x2="55.67067388415222" y1="173.97424548756322" y2="178.32567169271397" /><path d="M 57.64086615596768 174.84453072859336 a86.0,86.0 0 0,1 -31.369924170532247,-30.572349798747897" fill="none" id="id44" stroke="none" /><text fill="#e1ed5e" style="font-size:6.75px; font-family:Arial;" text-anchor="middle"><textPath startOffset="22.145653131862474" xlink:href="#id44">August</textPath></text><path d="M 88.72937992617639 117.7192867562869 l -25.8292409252462 40.60785685737254 a69.12637245132102,69.12637245132102 0 0,0 -0.9957962312608497,-0.6454630862345365 l 26.522522788764057 -40.15847992943411" fill="red" stroke="none" /><path d="M 86.68645165197938 116.24036423190432 l -30.425272154999774 37.11388494904708 a68.99101626051389,68.99101626051389 0 0,0 -0.9094516196744974,-0.7586968869001776 l 31.057898108836163 -36.58612587823504" fill="red" stroke="none" /><path d="M 83.20337586046588 112.60449989151573 l -38.38755813689507 28.806739280019887 a68.99409179951778,68.99409179951778 0 0,0 -0.7027474712649838,-0.9534119113306565 l 38.87640762774389 -28.143521059420348" fill="red" stroke="none" /><line stroke="#e1ed5e" stroke-width="0.3" x1="26.387840678322732" x2="22.057713659400548" y1="142.50000000000003" y2="145.00000000000006" /><path d="M 25.521815274538298 143.00000000000003 a86.0,86.0 0 0,1 -11.493303480769221,-40.785679425670985" fill="none" id="id45" stroke="none" /><text fill="#e1ed5e" style="font-size:6.75px; font-family:Arial;" text-anchor="middle"><textPath startOffset="21.40746469413373" xlink:href="#id45">September</textPath></text><path d="M 79.00696218219943 100.54070618675478 l -48.08083286253533 1.2383917000831 a69.09677850706731,69.09677850706731 0 0,0 -0.02036238762394329,-1.1860069956893196 l 48.09500668175794 -0.41283778842472807" fill="red" stroke="none" /><line stroke="#e1ed5e" stroke-width="0.3" x1="15.003131293944662" x2="10.003315487706104" y1="100.72959589197737" y2="100.7725132973878" /><path d="M 14.003168132696942 100.73817937305945 a86.0,86.0 0 0,1 10.791469493833604,-42.45332614584628" fill="none" id="id46" stroke="none" /><text fill="#e1ed5e" style="font-size:6.75px; font-family:Arial;" text-anchor="middle"><textPath startOffset="22.145653131862435" xlink:href="#id46">October</textPath></text><path d="M 79.00077361379809 99.81974689727619 l -48.514582617209776 -0.4164393432059444 a69.51636989974253,69.51636989974253 0 0,0 0.020486038577951934,-1.1932090438570635 l 48.50028514703316 1.2491953030320602" fill="red" stroke="none" /><path d="M 79.06263194458094 98.37931529534042 l -48.14069944961543 -3.726394600462321 a69.28470731211445,69.28470731211445 0 0,0 0.10196853835545927,-1.1850289812022756 l 48.069637288562234 4.552244629040278" fill="red" stroke="none" /><path d="M 80.41425534168474 92.42381321644754 l -44.877005225225645 -17.359389688991023 a69.11750210016287,69.11750210016287 0 0,0 0.43755106248699266,-1.1029145069763158 l 44.57239548777252 18.127205213180922" fill="red" stroke="none" /><line stroke="#e1ed5e" stroke-width="0.3" x1="26.387840678322718" x2="22.05771365940052" y1="57.49999999999999" y2="54.99999999999999" /><path d="M 25.521815274538284 56.99999999999999 a86.0,86.0 0 0,1 29.574782752854787,-30.34633250058573" fill="none" id="id47" stroke="none" /><text fill="#e1ed5e" style="font-size:6.75px; font-family:Arial;" text-anchor="middle"><textPath startOffset="21.40746469413373" xlink:href="#id47">November</textPath></text><line stroke="#e1ed5e" stroke-width="0.3" x1="56.869717070023135" x2="54.33264160355391" y1="26.7553504044142" y2="22.446841604673864" /><path d="M 56.362301976729285 25.89364864446614 a86.0,86.0 0 0,1 42.16139366436587,-11.88097634709845" fill="none" id="id48" stroke="none" /><text fill="#e1ed5e" style="font-size:6.75px; font-family:Arial;" text-anchor="middle"><textPath startOffset="22.145653131862474" xlink:href="#id48">December</textPath></text><path d="M 93.61358852112211 79.99465700312896 l -14.633366047785445 -45.838810723819975 a69.11789657146988,69.11789657146988 0 0,0 1.1333997676474505,-0.35113014523200026 l 13.844325647266379 46.08325745685862" fill="red" stroke="none" /><path d="M 96.41257539226777 79.30868818359171 l -8.231976258346597 -47.47985149558112 a69.18819078529945,69.18819078529945 0 0,0 1.1719902850184332,-0.19285055540517632 l 7.415708470275091 47.61416804948197" fill="red" stroke="none" /></svg>