<?xml version="1.0" encoding="utf-8" ?>
<svg baseProfile="full" height="200mm" version="1.1" viewBox="0,0,200,200" width="200mm" xmlns="http://www.w3.org/2000/svg" xmlns:ev="http://www.w3.org/2001/xml-events" xmlns:xlink="http://www.w3.org/1999/xlink"><defs /><rect fill="#1a1a1a" height="200" width="200" x="0" y="0" /><rect fill="#1a1a1a" height="200" width="180" x="10" y="0" /><text alignment-baseline="middle" fill="#e1ed5e" style="dominant-baseline: central; font-size:9.0px; font-family:Arial;" text-anchor="middle" x="100.0" y="100.0">2022</text><line stroke="#e1ed5e" stroke-width="0.3" x1="100.0" x2="100.0" y1="15.0" y2="10.0" /><path d="M 100.0 14.0 a86.0,86.0 0 0,1 42.46469731375804,11.215312516191453" fill="none" id="id13" stroke="none" /><text fill="#e1ed5e" style="font-size:6.75px; font-family:Arial;" text-anchor="middle"><textPath startOffset="22.20632615414155" xlink:href="#id13">January</textPath></text><path d="M 100.36148047927253 79.00311137660856 l 0.41196514412142426 -23.929331578968963 a44.93287749302645,44.93287749302645 0 0,0 0.7732164347634173,0.01996989929925267 l -0.8238082140797093 23.91869488752735" fill="red" stroke="none" /><line stroke="#e1ed5e" stroke-width="0.3" x1="143.23703022742887" x2="145.7803849466894" y1="26.81831364943548" y2="22.513508569990506" /><path d="M 143.74570117128098 25.957352633546492 a86.0,86.0 0 0,1 28.547481713284135,27.462654790039103" fill="none" id="id14" stroke="none" /><text fill="#e1ed5e" style="font-size:6.75px; font-family:Arial;" text-anchor="middle"><textPath startOffset="19.985693538727396" xlink:href="#id14">February</textPath></text><path d="M 111.60114157652 82.49532879139004 l 17.025840384491953 -25.68986302037748 a51.819609063126606,51.819609063126606 0 0,0 0.7392815053809976,0.4991661725147802 l -17.465526584279495 25.39298493556403" fill="red" stroke="none" /><path d="M 112.19680574252982 82.90503203632743 l 18.73628529430003 -26.26066230992163 a53.25942918876808,53.25942918876808 0 0,0 0.7417128340275696,0.5388859174884079 l -19.185543444681386 25.93425715761655" fill="red" stroke="none" /><path d="M 112.77801427241765 83.33499621200491 l 19.29546158817964 -25.165016535647325 a52.71108473610323,52.71108473610323 0 0,0 0.7152830062867663,0.558289732037867 l -19.72577714962584 24.829148414386232" fill="red" stroke="none" /><path d="M 113.34407831869373 83.78471172551755 l 20.342469226497172 -24.719504400715334 a53.01359011494914,53.01359011494914 0 0,0 0.6996341399569901,0.5859234718132454 l -20.76496090341328 24.36567977150827" fill="red" stroke="none" /><path d="M 114.68862486808459 84.99185889309783 l 18.28786894946987 -18.685678217199204 a47.14575914273091,47.14575914273091 0 0,0 0.5750978888715144,0.5726282357711928 l -18.606802638508707 18.36811413077789" fill="red" stroke="none" /><line stroke="#e1ed5e" stroke-width="0.3" x1="172.23445277983987" x2="176.4835382374775" y1="55.19839476539836" y2="52.563006222186495" /><path d="M 173.08426987136738 54.67131705675599 a86.0,86.0 0 0,1 12.851231095245387,41.99856678651699" fill="none" id="id15" stroke="none" /><text fill="#e1ed5e" style="font-size:6.75px; font-family:Arial;" text-anchor="middle"><textPath startOffset="22.20632615414155" xlink:href="#id15">March</textPath></text><path d="M 119.61058180528143 92.48833698450437 l 28.67113216539434 -10.982228127529499 a51.7024942682286,51.7024942682286 0 0,0 0.3111884780250055,0.8338304079296447 l -28.85592523192097 10.487074582570521" fill="red" stroke="none" /><path d="M 120.37134235888165 94.90015583598534 l 30.345887367865174 -7.596912067376842 a52.282358496485124,52.282358496485124 0 0,0 0.21103948216699994,0.8748948999686762 l -30.472159650292994 7.0734319357487605" fill="red" stroke="none" /><path d="M 120.83666639777658 97.38593545837742 l 31.209647135137327 -3.915407118156901 a52.454292031465265,52.454292031465265 0 0,0 0.10468289821358896,0.8968591431254469 l -31.272420386354504 3.3776042367066013" fill="red" stroke="none" /><path d="M 120.87857604477298 97.74499172005257 l 62.63572813431897 -6.7650248398422885 a84.0,84.0 0 0,0 0.1428914972710853,1.43889787718226 l -62.74289675727228 5.6858514319555935" fill="red" stroke="none" /><line stroke="#e1ed5e" stroke-width="0.3" x1="184.98032266829074" x2="189.97916517819016" y1="98.17113171792111" y2="98.06355123074" /><path d="M 185.9800911702706 98.14961562048488 a86.0,86.0 0 0,1 -9.607161424134198,41.387399972396054" fill="none" id="id16" stroke="none" /><text fill="#e1ed5e" style="font-size:6.75px; font-family:Arial;" text-anchor="middle"><textPath startOffset="21.466115282336823" xlink:href="#id16">April</textPath></text><path d="M 120.99824983174949 100.27111621757518 l 44.790675911053945 0.5783090844685488 a65.79440913737167,65.79440913737167 0 0,0 -0.024368799521307122,1.1323223583960975 l -44.77408504884763 -1.3492212586547612" fill="red" stroke="none" /><path d="M 120.95626037817324 101.35467743843564 l 29.85145553548564 1.92969034496756 a50.9137610877425,50.9137610877425 0 0,0 -0.0640627037752329,0.8740846949579328 l -29.813816273046072 -2.443248176422263" fill="red" stroke="none" /><path d="M 120.8583938346157 102.4346265915055 l 38.79046793434014 4.527688252446225 a60.05381368671196,60.05381368671196 0 0,0 -0.12868242761300067,1.0257255598455346 l -38.706783997480294 -5.194731566579154" fill="red" stroke="none" /><path d="M 120.13307415673323 105.97154293290107 l 28.749479638802033 8.527200099953742 a50.98742604903835,50.98742604903835 0 0,0 -0.25681450546722234,0.8392846630547234 l -28.598438360828677 -9.020811735560523" fill="red" stroke="none" /><line stroke="#e1ed5e" stroke-width="0.3" x1="174.80103733775053" x2="179.2010983576182" y1="140.37084112569926" y2="142.7455964860345" /><path d="M 175.68104954172406 140.8457921977663 a86.0,86.0 0 0,1 -30.038265399797805,32.042727171017184" fill="none" id="id17" stroke="none" /><text fill="#e1ed5e" style="font-size:6.75px; font-family:Arial;" text-anchor="middle"><textPath startOffset="22.206326154141568" xlink:href="#id17">May</textPath></text><path d="M 117.35343817320211 111.8261652097733 l 25.531602986787114 17.39948890695075 a51.89668210824617,51.89668210824617 0 0,0 -0.5094254748137553,0.7338653912164889 l -25.228316604811223 -17.83639556035426" fill="red" stroke="none" /><path d="M 115.32070863581623 114.36230785411682 l 21.659931563859608 20.304974959970583 a50.689133424135406,50.689133424135406 0 0,0 -0.6022193669333019,0.6314245985882664 l -21.30720564554734 -20.674806675141355" fill="red" stroke="none" /><path d="M 113.75828350139079 115.86535959552629 l 12.538670627104276 14.458963454907948 a40.13843999090237,40.13843999090237 0 0,0 -0.5258795503732243,0.4481659615412614 l -12.287925600154004 -14.672653806672157" fill="red" stroke="none" /><path d="M 111.7513745106137 117.40417183066458 l 14.18925810564124 21.014757550036883 a46.35655892417853,46.35655892417853 0 0,0 -0.665162099200319,0.44083316916930265 l -13.825421307700958 -21.255888740297504" fill="red" stroke="none" /><path d="M 111.45004920935366 117.60387380957326 l 16.129021037691906 24.797557270542782 a50.581483502694,50.581483502694 0 0,0 -0.7339570715587539,0.4684461290457396 l -15.699782164086223 -25.07151782841233" fill="red" stroke="none" /><line stroke="#e1ed5e" stroke-width="0.3" x1="143.8653032363475" x2="146.44561519142675" y1="172.8068346515853" y2="177.08958963109032" /><path d="M 144.38136562736335 173.6633856474863 a86.0,86.0 0 0,1 -40.68145358897372,12.25698825130547" fill="none" id="id18" stroke="none" /><text fill="#e1ed5e" style="font-size:6.75px; font-family:Arial;" text-anchor="middle"><textPath startOffset="21.466115282336833" xlink:href="#id18">June</textPath></text><path d="M 109.57404056367764 118.69057910512821 l 13.840297483673515 27.019226964476104 a51.357741355286166,51.357741355286166 0 0,0 -0.7902882585333435,0.3962669389437449 l -13.37315531745741 -27.25346174432915" fill="red" stroke="none" /><path d="M 101.62511606390274 120.93702456842531 l 2.3423629986820482 30.17760561285778 a51.268375327109645,51.268375327109645 0 0,0 -0.880442158919925,0.06072044611169796 l -1.8225580789831926 -30.21345440348576" fill="red" stroke="none" /><line stroke="#e1ed5e" stroke-width="0.3" x1="102.19456741930631" x2="102.32365962044197" y1="184.97166512339345" y2="189.96999836594603" /><path d="M 102.22038585953345 185.97133177190398 a86.0,86.0 0 0,1 -42.740103519485714,-10.115201625700543" fill="none" id="id19" stroke="none" /><text fill="#e1ed5e" style="font-size:6.75px; font-family:Arial;" text-anchor="middle"><textPath startOffset="22.20632615414155" xlink:href="#id19">July</textPath></text><path d="M 98.73552117531835 120.96189622390904 l -0.6049539039980021 10.028622629601866 a31.046852296760665,31.046852296760665 0 0,0 -0.5331738618480049,-0.036770791151372 l 0.777490526624937 -10.016723493934208" fill="red" stroke="none" /><path d="M 94.81253420990036 120.34920634021253 l -8.63643574159431 33.878703023950614 a55.96218730147941,55.96218730147941 0 0,0 -0.931396157287646,-0.24599019046760962 l 9.218322341693446 -33.72502148417942" fill="red" stroke="none" /><path d="M 93.42475214034765 119.94407469862007 l -9.31664105047545 28.259282238029094 a50.755450476710834,50.755450476710834 0 0,0 -0.8273869960278014,-0.280694591285973 l 9.801697779440477 -28.094724659845" fill="red" stroke="none" /><path d="M 90.10565033884886 118.52300852407294 l -14.295677203647811 26.762643303405962 a51.341480901502415,51.341480901502415 0 0,0 -0.7759340401437491,-0.42310110583344945 l 14.7542340556602 -26.512601545812746" fill="red" stroke="none" /><line stroke="#e1ed5e" stroke-width="0.3" x1="58.666819895761336" x2="56.23545636021788" y1="174.27360380694188" y2="178.64263932499728" /><path d="M 58.180547188652646 175.14741091055294 a86.0,86.0 0 0,1 -31.652253787137756,-30.449443065178592" fill="none" id="id20" stroke="none" /><text fill="#e1ed5e" style="font-size:6.75px; font-family:Arial;" text-anchor="middle"><textPath startOffset="22.20632615414155" xlink:href="#id20">August</textPath></text><path d="M 88.24862548938628 117.40417183066458 l -18.433533947161177 27.30066954916809 a53.94118594729123,53.94118594729123 0 0,0 -0.7650481366512949,-0.5262070844701134 l 18.900738968435363 -26.979321675332876" fill="red" stroke="none" /><path d="M 86.24171649860922 115.8653595955263 l -19.794111941088193 22.825572956664242 a51.21280603215021,51.21280603215021 0 0,0 -0.6610296525774261,-0.5832818117997554 l 20.18408394657221 -22.4814680030922" fill="red" stroke="none" /><path d="M 84.19399662182784 113.82643327865904 l -23.714988059881154 20.74488359068417 a52.507949058473216,52.507949058473216 0 0,0 -0.589232928700247,-0.6854110149041558 l 24.06856349815218 -20.333595476618488" fill="red" stroke="none" /><line stroke="#e1ed5e" stroke-width="0.3" x1="26.63291911575756" x2="22.317208475507996" y1="142.92168965132927" y2="145.44649492493687" /><path d="M 25.769776987707644 143.4266507060508 a86.0,86.0 0 0,1 -11.730757126820373,-40.83630448921669" fill="none" id="id21" stroke="none" /><text fill="#e1ed5e" style="font-size:6.75px; font-family:Arial;" text-anchor="middle"><textPath startOffset="21.46611528233685" xlink:href="#id21">September</textPath></text><line stroke="#e1ed5e" stroke-width="0.3" x1="15.007084014347285" x2="10.007500721073583" y1="101.09737516637583" y2="101.16192664675087" /><path d="M 14.007167355692545 101.11028546245083 a86.0,86.0 0 0,1 10.666146001902534,-42.60595125391555" fill="none" id="id22" stroke="none" /><text fill="#e1ed5e" style="font-size:6.75px; font-family:Arial;" text-anchor="middle"><textPath startOffset="22.20632615414155" xlink:href="#id22">October</textPath></text><line stroke="#e1ed5e" stroke-width="0.3" x1="26.266209847984243" x2="21.928928074336255" y1="57.711370442889674" y2="55.22380399835377" /><path d="M 25.398753493254645 57.213857153982495 a86.0,86.0 0 0,1 29.58750427330803,-30.492523968695096" fill="none" id="id23" stroke="none" /><text fill="#e1ed5e" style="font-size:6.75px; font-family:Arial;" text-anchor="middle"><textPath startOffset="21.46611528233685" xlink:href="#id23">November</textPath></text><path d="M 82.54541684631803 88.32363383020206 l -25.808937711592762 -17.265070412781213 a52.05131111819867,52.05131111819867 0 0,0 0.5045892130252347,-0.7404224070759472 l 25.507924032898785 17.706770843127575" fill="red" stroke="none" /><line stroke="#e1ed5e" stroke-width="0.3" x1="56.762969772571076" x2="54.21961505331055" y1="26.818313649435495" y2="22.513508569990535" /><path d="M 56.25429882871897 25.957352633546506 a86.0,86.0 0 0,1 42.265352541879196,-11.944610805530505" fill="none" id="id24" stroke="none" /><text fill="#e1ed5e" style="font-size:6.75px; font-family:Arial;" text-anchor="middle"><textPath startOffset="22.20632615414155" xlink:href="#id24">December</textPath></text></svg>