<?xml version="1.0" encoding="utf-8" ?>
<svg baseProfile="full" height="200mm" version="1.1" viewBox="0,0,200,200" width="200mm" xmlns="http://www.w3.org/2000/svg" xmlns:ev="http://www.w3.org/2001/xml-events" xmlns:xlink="http://www.w3.org/1999/xlink"><defs /><rect fill="#1a1a1a" height="200" width="200" x="0" y="0" /><rect fill="#1a1a1a" height="200" width="180" x="10" y="0" /><text alignment-baseline="middle" fill="#e1ed5e" style="dominant-baseline: central; font-size:9.0px; font-family:Arial;" text-anchor="middle" x="100.0" y="100.0">2021</text><line stroke="#e1ed5e" stroke-width="0.3" x1="100.0" x2="100.0" y1="15.0" y2="10.0" /><path d="M 100.0 14.0 a86.0,86.0 0 0,1 42.46469731375804,11.215312516191453" fill="none" id="id1" stroke="none" /><text fill="#e1ed5e" style="font-size:6.75px; font-family:Arial;" text-anchor="middle"><textPath startOffset="22.20632615414155" xlink:href="#id1">January</textPath></text><line stroke="#e1ed5e" stroke-width="0.3" x1="143.23703022742887" x2="145.7803849466894" y1="26.81831364943548" y2="22.513508569990506" /><path d="M 143.74570117128098 25.957352633546492 a86.0,86.0 0 0,1 28.547481713284135,27.462654790039103" fill="none" id="id2" stroke="none" /><text fill="#e1ed5e" style="font-size:6.75px; font-family:Arial;" text-anchor="middle"><textPath startOffset="19.985693538727396" xlink:href="#id2">February</textPath></text><line stroke="#e1ed5e" stroke-width="0.3" x1="172.23445277983987" x2="176.4835382374775" y1="55.19839476539836" y2="52.563006222186495" /><path d="M 173.08426987136738 54.67131705675599 a86.0,86.0 0 0,1 12.851231095245387,41.99856678651699" fill="none" id="id3" stroke="none" /><text fill="#e1ed5e" style="font-size:6.75px; font-family:Arial;" text-anchor="middle"><textPath startOffset="22.20632615414155" xlink:href="#id3">March</textPath></text><line stroke="#e1ed5e" stroke-width="0.3" x1="184.98032266829074" x2="189.97916517819016" y1="98.17113171792111" y2="98.06355123074" /><path d="M 185.9800911702706 98.14961562048488 a86.0,86.0 0 0,1 -9.607161424134198,41.387399972396054" fill="none" id="id4" stroke="none" /><text fill="#e1ed5e" style="font-size:6.75px; font-family:Arial;" text-anchor="middle"><textPath startOffset="21.466115282336823" xlink:href="#id4">April</textPath></text><path d="M 120.13307415673323 105.97154293290107 l 35.90049715555914 10.64821787313675 a58.44636484213252,58.44636484213252 0 0,0 -0.29438384022078334,0.9620634227765218 l -35.71188654283222 -11.264608268465329" fill="red" stroke="none" /><path d="M 120.02730092923936 106.31721596034902 l 60.08190278771807 18.951647881047055 a84.0,84.0 0 0,0 -0.4468309959350121,1.375204400088819 l -59.746779540766816 -19.98305118111367" fill="red" stroke="none" /><path d="M 119.79798401119884 107.00284435728193 l 55.22432433496721 19.533673117175848 a79.57721727516876,79.57721727516876 0 0,0 -0.4678978909618619,1.287454041779064 l -54.87990218300012 -20.48137495596104" fill="red" stroke="none" /><path d="M 119.41010516605496 108.01547362559984 l 49.52935067949633 20.453325763472783 a74.58633327182653,74.58633327182653 0 0,0 -0.5002577075142957,1.1824614468259267 l -49.16994199078973 -21.302861735964875" fill="red" stroke="none" /><path d="M 119.12269723197855 108.67885076344098 l 55.80078874578123 25.325230647749237 a82.27883265870037,82.27883265870037 0 0,0 -0.5964250870210506,1.2846465769767157 l -55.35658904192035 -26.28199729200478" fill="red" stroke="none" /><path d="M 118.81262510543309 109.33194174019688 l 56.16866171501102 27.862282685786973 a83.69948449005022,83.69948449005022 0 0,0 -0.6513467187413119,1.2851688693558265 l -55.68073632648344 -28.825005766845493" fill="red" stroke="none" /><path d="M 118.64920377521936 109.65438752849418 l 52.00106989917016 26.920102689316966 a79.55598346421783,79.55598346421783 0 0,0 -0.6400373267610231,1.2107094178676097 l -51.52998006418425 -27.811227122270708" fill="red" stroke="none" /><line stroke="#e1ed5e" stroke-width="0.3" x1="174.80103733775053" x2="179.2010983576182" y1="140.37084112569926" y2="142.7455964860345" /><path d="M 175.68104954172406 140.8457921977663 a86.0,86.0 0 0,1 -30.038265399797805,32.042727171017184" fill="none" id="id5" stroke="none" /><text fill="#e1ed5e" style="font-size:6.75px; font-family:Arial;" text-anchor="middle"><textPath startOffset="22.206326154141568" xlink:href="#id5">May</textPath></text><path d="M 118.48025628344425 109.97397251340804 l 50.71304861406675 27.37032134132058 a78.62766514496181,78.62766514496181 0 0,0 -0.6530723652870777,1.18551604068763 l -50.23439983932816 -28.239207900406015" fill="red" stroke="none" /><path d="M 118.30583269289576 110.29060199501025 l 17.657295790578274 9.926027749588668 a41.25601445303536,41.25601445303536 0 0,0 -0.35332437362318997,0.6160508272121147 l -17.483819420802707 -10.228498422659099" fill="red" stroke="none" /><path d="M 118.12598468904814 110.60418214915192 l 33.40073844488303 19.54031852403164 a59.69668431124431,59.69668431124431 0 0,0 -0.5265222662784785,0.882481603786902 l -33.05943530290633 -20.112362221704647" fill="red" stroke="none" /><path d="M 117.94076556474637 110.91462005526583 l 51.82747577694367 31.530271352544162 a81.66502498948427,81.66502498948427 0 0,0 -0.7409559506141047,1.1946569179007707 l -51.277055186661606 -32.41772460181021" fill="red" stroke="none" /><path d="M 117.75023020441432 111.22182372390056 l 31.899449054550814 20.16706206383122 a58.7397037915019,58.7397037915019 0 0,0 -0.5476642061451766,0.8499870099642554 l -31.547579985028587 -20.713170673716927" fill="red" stroke="none" /><path d="M 117.55443506779139 111.5257021239791 l 48.485043208452566 31.833788061582368 a79.00163340178668,79.00163340178668 0 0,0 -0.7561468086304655,1.130336883556306 l -47.92989329441138 -32.66366185934448" fill="red" stroke="none" /><path d="M 117.14729908036423 112.12312394758627 l 46.54111159618191 32.90452110822884 a77.99809275730317,77.99809275730317 0 0,0 -0.7845130165002174,1.089619964471346 l -45.96781878730609 -33.70077467815132" fill="red" stroke="none" /><path d="M 116.93607887273984 112.41649034213515 l 46.36775747281843 33.993985099726714 a78.49399930443656,78.49399930443656 0 0,0 -0.8082591896013184,1.0827952683000028 l -45.77573701652202 -34.787093247536035" fill="red" stroke="none" /><path d="M 116.498646956653 112.99209946851258 l 48.2116446364025 37.96496066025227 a82.3653071081801,82.3653071081801 0 0,0 -0.8867295526314543,1.106331457809386 l -47.55099717171619 -38.7892199516399" fill="red" stroke="none" /><path d="M 115.80600337817218 113.82643327865902 l 25.73511840531144 22.512009458432523 a55.191912628455796,55.191912628455796 0 0,0 -0.6316613224395938,0.7096781919565872 l -25.343798233223506 -22.951661820129974" fill="red" stroke="none" /><path d="M 114.81725581225074 114.88116024355365 l 37.71361612339719 37.876268858915836 a74.45024400108798,74.45024400108798 0 0,0 -0.9159154325388009,0.8964160253840237 l -37.0560507384826 -38.51983498722243" fill="red" stroke="none" /><path d="M 113.75828350139079 115.86535959552629 l 38.05773053144743 43.88625806482448 a79.08953864627122,79.08953864627122 0 0,0 -1.0362029772944303,0.8830746571938218 l -37.29666207757595 -44.534857112241255" fill="red" stroke="none" /><path d="M 111.45004920935366 117.60387380957326 l 30.946747785604284 47.57906563313542 a77.75798344751169,77.75798344751169 0 0,0 -1.1282986948852558,0.7201336106808632 l -30.123167288672096 -48.10471367264009" fill="red" stroke="none" /><line stroke="#e1ed5e" stroke-width="0.3" x1="143.8653032363475" x2="146.44561519142675" y1="172.8068346515853" y2="177.08958963109032" /><path d="M 144.38136562736335 173.6633856474863 a86.0,86.0 0 0,1 -40.68145358897372,12.25698825130547" fill="none" id="id6" stroke="none" /><text fill="#e1ed5e" style="font-size:6.75px; font-family:Arial;" text-anchor="middle"><textPath startOffset="21.466115282336833" xlink:href="#id6">June</textPath></text><path d="M 110.8373102113329 117.98757091392108 l 29.234627725833747 48.52310482084473 a77.64940564315545,77.64940564315545 0 0,0 -1.1508090396047634,0.679918265247867 l -28.3950508152006 -49.019141658386346" fill="red" stroke="none" /><path d="M 109.57404056367764 118.69057910512821 l 27.79244696330844 54.2568129973809 a81.96082237667954,81.96082237667954 0 0,0 -1.2612056892443504,0.6323947147877416 l -26.854387366381328 -54.72717555307794" fill="red" stroke="none" /><path d="M 108.59647513512805 119.15986991738527 l 23.47606752479677 52.323585292398924 a78.34878659814663,78.34878659814663 0 0,0 -1.23522206706181,0.5414850543694983 l -22.571924783077204 -52.719934900062874" fill="red" stroke="none" /><path d="M 106.57524785965236 119.94407469862006 l 11.235687553624999 34.080143690841815 a56.88449343088333,56.88449343088333 0 0,0 -0.9325769944556073,0.29858170381385196 l -10.647389214078451 -34.26849824131537" fill="red" stroke="none" /><path d="M 104.48393922423573 120.51570834832081 l 12.578764927700577 57.55258038377575 a79.9111605380281,79.9111605380281 0 0,0 -1.3463452821639086,0.28213974414742937 l -11.586228184107291 -57.76057610864972" fill="red" stroke="none" /><path d="M 103.41894727170886 120.7198165907248 l 5.791983797238854 35.101109329263195 a56.575763554031624,56.575763554031624 0 0,0 -0.9622301776411637,0.150280564484467 l -5.186917755989173 -35.195608201094764" fill="red" stroke="none" /><line stroke="#e1ed5e" stroke-width="0.3" x1="102.19456741930631" x2="102.32365962044197" y1="184.97166512339345" y2="189.96999836594603" /><path d="M 102.22038585953345 185.97133177190398 a86.0,86.0 0 0,1 -42.740103519485714,-10.115201625700543" fill="none" id="id7" stroke="none" /><text fill="#e1ed5e" style="font-size:6.75px; font-family:Arial;" text-anchor="middle"><textPath startOffset="22.20632615414155" xlink:href="#id7">July</textPath></text><path d="M 99.81925306533755 120.99922214144158 l -0.5291895629041229 61.48137011069756 a82.4836475193369,82.4836475193369 0 0,0 -1.4196626256272857,-0.024440779561279036 l 1.5874118784240765 -61.46315185385713" fill="red" stroke="none" /><path d="M 98.37488393609728 120.93702456842531 l -2.27075060976809 29.254994373329417 a50.342989011266354,50.342989011266354 0 0,0 -0.8633958835372716,-0.07449742981200635 l 2.7739908110469034 -29.211572691238747" fill="red" stroke="none" /><path d="M 97.65516085044442 120.86867818915974 l -6.352924181420222 56.53996792373455 a77.89576098859919,77.89576098859919 0 0,0 -1.3311739275881738,-0.16118662420458074 l 7.325225532059785 -56.422235770804626" fill="red" stroke="none" /><path d="M 96.93821686468263 120.77559828337769 l -8.597222360119355 58.33608397878849 a79.96618460007056,79.96618460007056 0 0,0 -1.3600501553907667,-0.2124118634278924 l 9.600108379118637 -58.17945380801349" fill="red" stroke="none" /><path d="M 91.07499286063937 119.00905698771935 l -21.63306941159916 46.07550927895794 a71.90129907460522,71.90129907460522 0 0,0 -1.1157963106066553,-0.5356500359213314 l 22.422978390206058 -45.69630496653705" fill="red" stroke="none" /><line stroke="#e1ed5e" stroke-width="0.3" x1="58.666819895761336" x2="56.23545636021788" y1="174.27360380694188" y2="178.64263932499728" /><path d="M 58.180547188652646 175.14741091055294 a86.0,86.0 0 0,1 -31.652253787137756,-30.449443065178592" fill="none" id="id8" stroke="none" /><text fill="#e1ed5e" style="font-size:6.75px; font-family:Arial;" text-anchor="middle"><textPath startOffset="22.20632615414155" xlink:href="#id8">August</textPath></text><path d="M 84.9287848128048 114.62390073753433 l -37.645078047834126 36.527770175824294 a73.45407415297082,73.45407415297082 0 0,0 -0.8726814416995462,-0.915003002687547 l 38.26826604091263 -35.874360056554245" fill="red" stroke="none" /><line stroke="#e1ed5e" stroke-width="0.3" x1="26.63291911575756" x2="22.317208475507996" y1="142.92168965132927" y2="145.44649492493687" /><path d="M 25.769776987707644 143.4266507060508 a86.0,86.0 0 0,1 -11.730757126820373,-40.83630448921669" fill="none" id="id9" stroke="none" /><text fill="#e1ed5e" style="font-size:6.75px; font-family:Arial;" text-anchor="middle"><textPath startOffset="21.46611528233685" xlink:href="#id9">September</textPath></text><path d="M 80.58989483394504 108.01547362559985 l -32.994580741757225 13.625232293217495 a56.6971891522074,56.6971891522074 0 0,0 -0.364744858734172,-0.9052668268700561 l 33.224228214748784 -13.055266098504633" fill="red" stroke="none" /><line stroke="#e1ed5e" stroke-width="0.3" x1="15.007084014347285" x2="10.007500721073583" y1="101.09737516637583" y2="101.16192664675087" /><path d="M 14.007167355692545 101.11028546245083 a86.0,86.0 0 0,1 10.666146001902534,-42.60595125391555" fill="none" id="id10" stroke="none" /><text fill="#e1ed5e" style="font-size:6.75px; font-family:Arial;" text-anchor="middle"><textPath startOffset="22.20632615414155" xlink:href="#id10">October</textPath></text><path d="M 79.00486145842228 99.54816195383935 l -57.335659497758265 -1.233925287584815 a78.34893566281957,78.34893566281957 0 0,0 0.040623197646275554,-1.3480861605931045 l 57.305924605656344 2.220681595602914" fill="red" stroke="none" /><path d="M 79.12142395522702 97.74499172005258 l -58.693078692756835 -6.339195649355955 a80.03442121267015,80.03442121267015 0 0,0 0.1597244924088134,-1.3684219088549872 l 58.57526384734444 7.348561296535804" fill="red" stroke="none" /><path d="M 79.32604984820605 96.31383870115002 l -57.133003149121315 -10.186803370863826 a79.03405045104252,79.03405045104252 0 0,0 0.250328221534408,-1.3372633691516405 l 56.949189203677044 11.16874481747804" fill="red" stroke="none" /><path d="M 79.81627453868168 94.20196356495316 l -37.22061684603284 -10.692104043022455 a59.72590098714297,59.72590098714297 0 0,0 0.29235573386516084,-0.985678196772839 l 37.03105521505597 11.331211626541833" fill="red" stroke="none" /><line stroke="#e1ed5e" stroke-width="0.3" x1="26.266209847984243" x2="21.928928074336255" y1="57.711370442889674" y2="55.22380399835377" /><path d="M 25.398753493254645 57.213857153982495 a86.0,86.0 0 0,1 29.58750427330803,-30.492523968695096" fill="none" id="id11" stroke="none" /><text fill="#e1ed5e" style="font-size:6.75px; font-family:Arial;" text-anchor="middle"><textPath startOffset="21.46611528233685" xlink:href="#id11">November</textPath></text><path d="M 82.15384107792192 88.93136811851018 l -16.243196174344234 -10.074434494148534 a40.11375557903577,40.11375557903577 0 0,0 0.36899383756210785,-0.5836596369614947 l 16.067374740536163 10.352541778824245" fill="red" stroke="none" /><path d="M 85.31137513191541 84.99185889309783 l -40.66567252658451 -41.55025790141521 a79.13880677923763,79.13880677923763 0 0,0 0.981761202214753,-0.9444534986822013 l 39.944428080757326 42.24409448685972" fill="red" stroke="none" /><line stroke="#e1ed5e" stroke-width="0.3" x1="56.762969772571076" x2="54.21961505331055" y1="26.818313649435495" y2="22.513508569990535" /><path d="M 56.25429882871897 25.957352633546506 a86.0,86.0 0 0,1 42.265352541879196,-11.944610805530505" fill="none" id="id12" stroke="none" /><text fill="#e1ed5e" style="font-size:6.75px; font-family:Arial;" text-anchor="middle"><textPath startOffset="22.20632615414155" xlink:href="#id12">December</textPath></text><path d="M 89.63071344664047 81.73862282372117 l -7.117412636804448 -12.53449367138854 a35.41426703792541,35.41426703792541 0 0,0 0.5326911362119295,-0.2964420405694847 l 6.900597411520473 12.655151109518211" fill="red" stroke="none" /><path d="M 90.91171255644093 81.06846463323043 l -16.83158347340949 -35.06135999598184 a59.89217359559873,59.89217359559873 0 0,0 0.9332392463383893,-0.4381683395279757 l 16.225566015771495 35.34589331814982" fill="red" stroke="none" /><path d="M 92.91201910852362 80.23233633223022 l -11.67485306292621 -32.55998742830784 a55.58981028240083,55.58981028240083 0 0,0 0.9035144114329157,-0.31521843717842907 l 11.11265664743001 32.756126718658486" fill="red" stroke="none" /><path d="M 96.40284397218896 79.31037775812273 l -6.227183565158282 -35.81664920783345 a57.353956808457234,57.353956808457234 0 0,0 0.9741181574261193,-0.16073784254175866 l 5.609736201593277 35.91853331331484" fill="red" stroke="none" /></svg>